<?xml version="1.0" encoding="UTF-8" standalone="no"?>
<!DOCTYPE svg PUBLIC "-//W3C//DTD SVG 1.1//EN" "http://www.w3.org/Graphics/SVG/1.1/DTD/svg11.dtd">
<svg width="100%" height="100%" viewBox="0 0 494 494" version="1.1" xmlns="http://www.w3.org/2000/svg" xmlns:xlink="http://www.w3.org/1999/xlink" xml:space="preserve" xmlns:serif="http://www.serif.com/" style="fill-rule:evenodd;clip-rule:evenodd;stroke-linejoin:round;stroke-miterlimit:2;">
    <g transform="matrix(1,0,0,1,-1203.5,-1186.11)">
        <path d="M1683.7,1514.35C1692.6,1488.89 1697.45,1461.54 1697.45,1433.08C1697.45,1404.62 1692.6,1377.3 1683.7,1351.83C1683.49,1351.08 1683.23,1350.33 1682.91,1349.61C1648.62,1254.38 1557.38,1186.11 1450.47,1186.11C1343.57,1186.11 1252.33,1254.38 1218.03,1349.61C1217.72,1350.33 1217.45,1351.08 1217.25,1351.83C1208.35,1377.3 1203.5,1404.62 1203.5,1433.08C1203.5,1461.54 1208.35,1488.89 1217.25,1514.35C1217.46,1515.11 1217.72,1515.86 1218.03,1516.57C1252.34,1611.8 1343.57,1680.08 1450.47,1680.08C1557.38,1680.08 1648.62,1611.8 1682.91,1516.57C1683.23,1515.86 1683.49,1515.11 1683.7,1514.35ZM1450.47,1644.67C1441.06,1644.67 1425.9,1627.65 1413.23,1589.62C1407.1,1571.27 1402.21,1550.17 1398.65,1527.22L1502.3,1527.22C1498.73,1550.17 1493.84,1571.26 1487.72,1589.62C1475.04,1627.65 1459.88,1644.67 1450.47,1644.67ZM1505.79,1637.32C1520.95,1609.6 1531.75,1570.65 1538.05,1527.22L1639.92,1527.22C1613.23,1580.72 1564.54,1621.38 1505.79,1637.32ZM1261.03,1527.22L1362.9,1527.22C1369.2,1570.65 1380,1609.6 1395.15,1637.32C1336.4,1621.38 1287.72,1580.72 1261.03,1527.22ZM1599.19,1501.6L1301.75,1501.6C1264.51,1501.6 1234.05,1471.13 1234.05,1433.9L1234.05,1432.29C1234.05,1395.05 1264.51,1364.58 1301.75,1364.58L1599.19,1364.58C1636.43,1364.58 1666.9,1395.05 1666.9,1432.29L1666.9,1433.9C1666.9,1471.13 1636.43,1501.6 1599.19,1501.6ZM1395.15,1228.87C1380,1256.58 1369.2,1295.54 1362.9,1338.96L1261.03,1338.96C1287.72,1285.46 1336.4,1244.79 1395.15,1228.87ZM1639.92,1338.96L1538.05,1338.96C1531.75,1295.54 1520.95,1256.58 1505.79,1228.87C1564.54,1244.79 1613.23,1285.46 1639.92,1338.96ZM1450.47,1221.51C1459.88,1221.51 1475.04,1238.53 1487.72,1276.57C1493.84,1294.91 1498.73,1316.02 1502.3,1338.96L1398.65,1338.96C1402.2,1316 1407.1,1294.91 1413.23,1276.57C1425.9,1238.53 1441.06,1221.51 1450.47,1221.51Z" style="fill:white;fill-rule:nonzero;"/>
        <path d="M1517.14,1400.75L1490.66,1400.75L1473.74,1446.95L1456.94,1400.75L1444.69,1400.75L1427.54,1446.72L1411.09,1400.75L1397.56,1400.75L1397.56,1400.75L1384.61,1400.75L1367.7,1446.95L1350.9,1400.75L1338.65,1400.75L1321.5,1446.72L1305.05,1400.75L1291.28,1400.75L1314.15,1463.05L1328.15,1463.05L1344.48,1420.12L1360.58,1463.05L1374.58,1463.05L1397.44,1401.08L1420.19,1463.05L1434.19,1463.05L1450.53,1420.12L1466.62,1463.05L1480.62,1463.05L1503.49,1401.07L1526.24,1463.05L1540.24,1463.05L1556.58,1420.12L1572.67,1463.05L1586.67,1463.05L1609.66,1400.75L1596.71,1400.75L1579.79,1446.95L1562.99,1400.75L1550.74,1400.75L1533.59,1446.72L1517.14,1400.75Z" style="fill:white;fill-rule:nonzero;"/>
    </g>
</svg>
